<svg width="800px" height="800px" viewBox="0 0 512 512" version="1.1" id="Layer_1" xmlns="http://www.w3.org/2000/svg" xmlns:xlink="http://www.w3.org/1999/xlink" xml:space="preserve"><g><path d="M243.737,501.801H35.415v-29.847c0-50.125,40.635-90.76,90.76-90.76h26.801
		c50.125,0,90.76,40.635,90.76,90.76v29.847H243.737z" style="fill:#5C88D2"/><circle cx="139.576" cy="299.877" r="79.492" style="fill:#5C88D2"/></g><path d="M476.584,129.523c0,65.9-49.61,87.435-107.281,119.324c-46.526,25.725-96.335,49.262-96.335,49.262
	l6.568-77.73c0,0-4.485-4.355-5.624-5.467c-22.195-21.668-35.976-51.919-35.976-85.389c0-65.901,53.423-119.324,119.324-119.324
	S476.584,63.622,476.584,129.523z" style="fill:#E6E6E6;"/><g><path d="M186.046,376.563c25.891-15.748,43.22-44.233,43.22-76.688c0-49.455-40.235-89.69-89.69-89.69
		s-89.69,40.235-89.69,89.69c0,32.456,17.328,60.94,43.22,76.688c-39.476,13.724-67.89,51.299-67.89,95.39v29.848
		c0,5.632,4.566,10.199,10.199,10.199h208.322c5.633,0,10.199-4.567,10.199-10.199v-29.848
		C253.936,427.862,225.523,390.287,186.046,376.563z M70.284,299.875c0-38.207,31.084-69.291,69.291-69.291
		s69.291,31.085,69.291,69.291s-31.084,69.291-69.291,69.291S70.284,338.082,70.284,299.875z M233.538,491.602H45.614v-19.649
		c0-44.422,36.14-80.56,80.56-80.56h26.801c44.422,0,80.56,36.14,80.56,80.56v19.649H233.538z" style="fill:#4C1D1D;"/><path d="M176.231,299.875c0,5.632,4.566,10.199,10.199,10.199s10.199-4.567,10.199-10.199
		c0-2.827-0.21-5.672-0.622-8.452c-0.829-5.572-6.018-9.428-11.587-8.59c-5.572,0.828-9.417,6.016-8.59,11.587
		C176.096,296.212,176.231,298.047,176.231,299.875z" style="fill:#4C1D1D;"/><path d="M184.302,335.299c3.5-4.413,2.759-10.829-1.654-14.329c-4.414-3.498-10.83-2.758-14.329,1.655
		c-7.007,8.836-17.483,13.904-28.742,13.904c-5.633,0-10.199,4.567-10.199,10.199c0,5.632,4.566,10.199,10.199,10.199
		C157.101,356.927,173.403,349.044,184.302,335.299z" style="fill:#4C1D1D;"/><path d="M357.26,0c-71.419,0-129.523,58.104-129.523,129.522c0,35.186,13.868,68.102,39.049,92.686
		c0.413,0.403,1.263,1.229,2.18,2.12l-6.161,72.92c-0.307,3.634,1.35,7.157,4.347,9.237c1.738,1.207,3.772,1.821,5.818,1.821
		c1.482,0,2.971-0.322,4.356-0.978c0.501-0.236,50.638-23.97,96.913-49.558c4.425-2.446,8.803-4.832,13.114-7.182
		c26.086-14.216,50.725-27.644,68.8-45.555c20.898-20.709,30.631-44.704,30.631-75.512C486.783,58.104,428.679,0,357.26,0z
		 M377.591,232.677c-4.348,2.369-8.762,4.775-13.224,7.243c-29.84,16.499-61.332,32.232-79.73,41.227l5.062-59.911
		c0.257-3.045-0.865-6.047-3.058-8.176c-0.001-0.001-4.468-4.34-5.604-5.448c-21.216-20.714-32.901-48.446-32.901-78.09
		c0-60.172,48.953-109.124,109.124-109.124s109.124,48.952,109.124,109.123C466.385,184.287,429.139,204.586,377.591,232.677z" style="fill:#4C1D1D;"/><path d="M361.124,112.031V83.363c10.913,0.815,14.659,6.027,19.22,6.027c6.027,0,8.633-7.493,8.633-11.24
		c0-9.448-17.265-12.542-27.853-12.867v-4.235c0-2.117-2.769-4.072-5.538-4.072c-3.094,0-5.538,1.954-5.538,4.072v4.561
		c-16.288,2.117-31.598,11.075-31.598,31.762c0,20.848,16.777,27.2,31.598,32.739v32.412c-14.334-1.629-19.22-12.217-25.409-12.217
		c-5.05,0-9.121,6.842-9.121,11.403c0,9.12,14.822,19.708,34.53,20.196v4.561c0,2.117,2.444,4.073,5.538,4.073
		c2.769,0,5.538-1.955,5.538-4.073v-5.049c18.242-2.932,30.784-14.496,30.784-34.53
		C391.908,124.735,375.621,117.405,361.124,112.031z M351.351,108.447c-7.492-2.932-13.03-6.027-13.03-13.194
		c0-6.189,4.886-10.098,13.03-11.402V108.447z M359.821,162.36v-28.342c7.004,3.094,12.216,7.004,12.216,14.985
		C372.037,156.66,366.987,160.894,359.821,162.36z" style="fill:#4C1D1D;"/></g></svg>