<?xml version="1.0" encoding="utf-8"?><!-- Uploaded to: SVG Repo, www.svgrepo.com, Generator: SVG Repo Mixer Tools -->
<svg width="800px" height="800px" viewBox="0 0 24 24" id="upload-alt-2" xmlns="http://www.w3.org/2000/svg" class="icon multi-color"><path id="tertiary-fill" d="M20,14.71a1.77,1.77,0,0,0,0-.23,4.42,4.42,0,0,0-4.42-4.42,4.24,4.24,0,0,0-.88.09A6.94,6.94,0,0,0,8,5a6.83,6.83,0,0,0-4.1,1.35A6.58,6.58,0,0,1,16,7.87a4.58,4.58,0,0,1,.83-.08A4.19,4.19,0,0,1,20,14.71Z" style="fill: #b7b7b7; stroke-width: 2;"></path><path id="primary-stroke" d="M6,15.11A6.59,6.59,0,1,1,16,7.87a4.58,4.58,0,0,1,.83-.08A4.19,4.19,0,0,1,18,16" style="fill: none; stroke: rgb(0, 0, 0); stroke-linecap: round; stroke-linejoin: round; stroke-width: 2;"></path><path id="secondary-stroke" d="M12,21.18v-9M15,15l-3-3L8.79,15.18" style="fill: none; stroke: rgb(44, 169, 188); stroke-linecap: round; stroke-linejoin: round; stroke-width: 2;"></path></svg>